<svg width="48" height="43" viewBox="0 0 48 43" fill="none" xmlns="http://www.w3.org/2000/svg">
<path d="M32 32.3597V30.1433C34.9374 28.4751 37.3333 24.316 37.3333 20.1562C37.3333 13.4771 37.3333 8.0625 29.3333 8.0625C21.3333 8.0625 21.3333 13.4771 21.3333 20.1562C21.3333 24.316 23.7292 28.4751 26.6667 30.1433V32.3597C17.6208 33.105 10.6667 37.5844 10.6667 43H48C48 37.5844 41.0459 33.105 32 32.3597Z" fill="#5D5D5D"/>
<path d="M13.6332 33.3976C15.9378 31.8795 18.8032 30.7253 21.9577 30.0208C21.3304 29.274 20.7615 28.441 20.2705 27.5424C19.0033 25.223 18.3333 22.6689 18.3333 20.1562C18.3333 16.5432 18.3333 13.1305 19.6083 10.3401C20.8461 7.63141 23.072 5.95206 26.2426 5.32251C25.5378 2.11095 23.6618 0 18.6667 0C10.6667 0 10.6667 5.41456 10.6667 12.0938C10.6667 16.2535 13.0626 20.4126 16 22.0808V24.2972C6.95408 25.0425 0 29.5219 0 34.9375H11.6253C12.2302 34.3954 12.9001 33.8805 13.6332 33.3976Z" fill="#5D5D5D"/>
</svg>
